<?xml version="1.0" encoding="UTF-8" standalone="no"?>
<!DOCTYPE svg PUBLIC "-//W3C//DTD SVG 1.1//EN"
 "http://www.w3.org/Graphics/SVG/1.1/DTD/svg11.dtd">
<!-- Generated by graphviz version 5.0.0 (20220707.1540)
 -->
<!-- Title: dependencies Pages: 1 -->
<svg width="1881pt" height="247pt"
 viewBox="0.00 0.00 1881.00 246.80" xmlns="http://www.w3.org/2000/svg" xmlns:xlink="http://www.w3.org/1999/xlink">
<g id="graph0" class="graph" transform="scale(1 1) rotate(0) translate(4 242.8)">
<title>dependencies</title>
<polygon fill="white" stroke="transparent" points="-4,4 -4,-242.8 1877,-242.8 1877,4 -4,4"/>
<text text-anchor="middle" x="936.5" y="-8.2" font-family="sans-serif" font-size="14.00">dependencies</text>
<g id="clust1" class="cluster">
<title>cluster_AppModule</title>
<polygon fill="none" stroke="black" stroke-dasharray="1,5" points="8,-32.8 8,-230.8 1865,-230.8 1865,-32.8 8,-32.8"/>
</g>
<g id="clust15" class="cluster">
<title>cluster_AppModule_imports</title>
<polygon fill="none" stroke="black" points="1713,-40.8 1713,-92.8 1857,-92.8 1857,-40.8 1713,-40.8"/>
</g>
<g id="clust17" class="cluster">
<title>cluster_AppModule_bootstrap</title>
<polygon fill="none" stroke="black" points="866,-170.8 866,-222.8 990,-222.8 990,-170.8 866,-170.8"/>
</g>
<g id="clust2" class="cluster">
<title>cluster_AppModule_declarations</title>
<polygon fill="none" stroke="black" points="16,-40.8 16,-92.8 1705,-92.8 1705,-40.8 16,-40.8"/>
</g>
<!-- AppComponent -->
<g id="node1" class="node">
<title>AppComponent</title>
<polygon fill="#ffffb3" stroke="black" points="1696.94,-84.8 1591.06,-84.8 1591.06,-48.8 1696.94,-48.8 1696.94,-84.8"/>
<text text-anchor="middle" x="1644" y="-62.6" font-family="Times,serif" font-size="14.00">AppComponent</text>
</g>
<!-- AppModule -->
<g id="node13" class="node">
<title>AppModule</title>
<polygon fill="#8dd3c7" stroke="black" points="969.66,-149.8 966.66,-153.8 945.66,-153.8 942.66,-149.8 886.34,-149.8 886.34,-113.8 969.66,-113.8 969.66,-149.8"/>
<text text-anchor="middle" x="928" y="-127.6" font-family="Times,serif" font-size="14.00">AppModule</text>
</g>
<!-- AppComponent&#45;&gt;AppModule -->
<g id="edge1" class="edge">
<title>AppComponent&#45;&gt;AppModule</title>
<path fill="none" stroke="black" d="M1644,-84.84C1644,-106.46 1644,-139.8 1644,-139.8 1644,-139.8 979.85,-139.8 979.85,-139.8"/>
<polygon fill="black" stroke="black" points="979.85,-136.3 969.85,-139.8 979.85,-143.3 979.85,-136.3"/>
</g>
<!-- AuthButtonComponent -->
<g id="node2" class="node">
<title>AuthButtonComponent</title>
<polygon fill="#ffffb3" stroke="black" points="1573.95,-84.8 1426.05,-84.8 1426.05,-48.8 1573.95,-48.8 1573.95,-84.8"/>
<text text-anchor="middle" x="1500" y="-62.6" font-family="Times,serif" font-size="14.00">AuthButtonComponent</text>
</g>
<!-- AuthButtonComponent&#45;&gt;AppModule -->
<g id="edge2" class="edge">
<title>AuthButtonComponent&#45;&gt;AppModule</title>
<path fill="none" stroke="black" d="M1500,-85.02C1500,-105.17 1500,-134.8 1500,-134.8 1500,-134.8 980.06,-134.8 980.06,-134.8"/>
<polygon fill="black" stroke="black" points="980.06,-131.3 970.06,-134.8 980.06,-138.3 980.06,-131.3"/>
</g>
<!-- BuySellComponent -->
<g id="node3" class="node">
<title>BuySellComponent</title>
<polygon fill="#ffffb3" stroke="black" points="1408.45,-84.8 1281.55,-84.8 1281.55,-48.8 1408.45,-48.8 1408.45,-84.8"/>
<text text-anchor="middle" x="1345" y="-62.6" font-family="Times,serif" font-size="14.00">BuySellComponent</text>
</g>
<!-- BuySellComponent&#45;&gt;AppModule -->
<g id="edge3" class="edge">
<title>BuySellComponent&#45;&gt;AppModule</title>
<path fill="none" stroke="black" d="M1345,-85.02C1345,-103.63 1345,-129.8 1345,-129.8 1345,-129.8 979.89,-129.8 979.89,-129.8"/>
<polygon fill="black" stroke="black" points="979.89,-126.3 969.89,-129.8 979.89,-133.3 979.89,-126.3"/>
</g>
<!-- DefaultComponent -->
<g id="node4" class="node">
<title>DefaultComponent</title>
<polygon fill="#ffffb3" stroke="black" points="1263.81,-84.8 1140.19,-84.8 1140.19,-48.8 1263.81,-48.8 1263.81,-84.8"/>
<text text-anchor="middle" x="1202" y="-62.6" font-family="Times,serif" font-size="14.00">DefaultComponent</text>
</g>
<!-- DefaultComponent&#45;&gt;AppModule -->
<g id="edge4" class="edge">
<title>DefaultComponent&#45;&gt;AppModule</title>
<path fill="none" stroke="black" d="M1202,-84.83C1202,-101.86 1202,-124.8 1202,-124.8 1202,-124.8 979.91,-124.8 979.91,-124.8"/>
<polygon fill="black" stroke="black" points="979.91,-121.3 969.91,-124.8 979.91,-128.3 979.91,-121.3"/>
</g>
<!-- FooterComponent -->
<g id="node5" class="node">
<title>FooterComponent</title>
<polygon fill="#ffffb3" stroke="black" points="1121.88,-84.8 1004.12,-84.8 1004.12,-48.8 1121.88,-48.8 1121.88,-84.8"/>
<text text-anchor="middle" x="1063" y="-62.6" font-family="Times,serif" font-size="14.00">FooterComponent</text>
</g>
<!-- FooterComponent&#45;&gt;AppModule -->
<g id="edge5" class="edge">
<title>FooterComponent&#45;&gt;AppModule</title>
<path fill="none" stroke="black" d="M1063,-85.04C1063,-100.37 1063,-119.8 1063,-119.8 1063,-119.8 979.97,-119.8 979.97,-119.8"/>
<polygon fill="black" stroke="black" points="979.97,-116.3 969.97,-119.8 979.97,-123.3 979.97,-116.3"/>
</g>
<!-- HomeComponent -->
<g id="node6" class="node">
<title>HomeComponent</title>
<polygon fill="#ffffb3" stroke="black" points="985.55,-84.8 870.45,-84.8 870.45,-48.8 985.55,-48.8 985.55,-84.8"/>
<text text-anchor="middle" x="928" y="-62.6" font-family="Times,serif" font-size="14.00">HomeComponent</text>
</g>
<!-- HomeComponent&#45;&gt;AppModule -->
<g id="edge6" class="edge">
<title>HomeComponent&#45;&gt;AppModule</title>
<path fill="none" stroke="black" d="M928,-84.91C928,-84.91 928,-103.79 928,-103.79"/>
<polygon fill="black" stroke="black" points="924.5,-103.79 928,-113.79 931.5,-103.79 924.5,-103.79"/>
</g>
<!-- NavBarComponent -->
<g id="node7" class="node">
<title>NavBarComponent</title>
<polygon fill="#ffffb3" stroke="black" points="852.37,-84.8 727.63,-84.8 727.63,-48.8 852.37,-48.8 852.37,-84.8"/>
<text text-anchor="middle" x="790" y="-62.6" font-family="Times,serif" font-size="14.00">NavBarComponent</text>
</g>
<!-- NavBarComponent&#45;&gt;AppModule -->
<g id="edge7" class="edge">
<title>NavBarComponent&#45;&gt;AppModule</title>
<path fill="none" stroke="black" d="M790,-85.04C790,-100.37 790,-119.8 790,-119.8 790,-119.8 876.22,-119.8 876.22,-119.8"/>
<polygon fill="black" stroke="black" points="876.22,-123.3 886.22,-119.8 876.22,-116.3 876.22,-123.3"/>
</g>
<!-- PortfolioComponent -->
<g id="node8" class="node">
<title>PortfolioComponent</title>
<polygon fill="#ffffb3" stroke="black" points="709.61,-84.8 578.39,-84.8 578.39,-48.8 709.61,-48.8 709.61,-84.8"/>
<text text-anchor="middle" x="644" y="-62.6" font-family="Times,serif" font-size="14.00">PortfolioComponent</text>
</g>
<!-- PortfolioComponent&#45;&gt;AppModule -->
<g id="edge8" class="edge">
<title>PortfolioComponent&#45;&gt;AppModule</title>
<path fill="none" stroke="black" d="M644,-84.83C644,-101.86 644,-124.8 644,-124.8 644,-124.8 876.09,-124.8 876.09,-124.8"/>
<polygon fill="black" stroke="black" points="876.09,-128.3 886.09,-124.8 876.09,-121.3 876.09,-128.3"/>
</g>
<!-- RegisterComponent -->
<g id="node9" class="node">
<title>RegisterComponent</title>
<polygon fill="#ffffb3" stroke="black" points="559.99,-84.8 432.01,-84.8 432.01,-48.8 559.99,-48.8 559.99,-84.8"/>
<text text-anchor="middle" x="496" y="-62.6" font-family="Times,serif" font-size="14.00">RegisterComponent</text>
</g>
<!-- RegisterComponent&#45;&gt;AppModule -->
<g id="edge9" class="edge">
<title>RegisterComponent&#45;&gt;AppModule</title>
<path fill="none" stroke="black" d="M496,-85.02C496,-103.63 496,-129.8 496,-129.8 496,-129.8 876.19,-129.8 876.19,-129.8"/>
<polygon fill="black" stroke="black" points="876.19,-133.3 886.19,-129.8 876.19,-126.3 876.19,-133.3"/>
</g>
<!-- SignOutComponent -->
<g id="node10" class="node">
<title>SignOutComponent</title>
<polygon fill="#ffffb3" stroke="black" points="414.01,-84.8 285.99,-84.8 285.99,-48.8 414.01,-48.8 414.01,-84.8"/>
<text text-anchor="middle" x="350" y="-62.6" font-family="Times,serif" font-size="14.00">SignOutComponent</text>
</g>
<!-- SignOutComponent&#45;&gt;AppModule -->
<g id="edge10" class="edge">
<title>SignOutComponent&#45;&gt;AppModule</title>
<path fill="none" stroke="black" d="M350,-85.02C350,-105.17 350,-134.8 350,-134.8 350,-134.8 875.97,-134.8 875.97,-134.8"/>
<polygon fill="black" stroke="black" points="875.97,-138.3 885.97,-134.8 875.97,-131.3 875.97,-138.3"/>
</g>
<!-- SigninComponent -->
<g id="node11" class="node">
<title>SigninComponent</title>
<polygon fill="#ffffb3" stroke="black" points="267.9,-84.8 150.1,-84.8 150.1,-48.8 267.9,-48.8 267.9,-84.8"/>
<text text-anchor="middle" x="209" y="-62.6" font-family="Times,serif" font-size="14.00">SigninComponent</text>
</g>
<!-- SigninComponent&#45;&gt;AppModule -->
<g id="edge11" class="edge">
<title>SigninComponent&#45;&gt;AppModule</title>
<path fill="none" stroke="black" d="M209,-84.84C209,-106.46 209,-139.8 209,-139.8 209,-139.8 876.24,-139.8 876.24,-139.8"/>
<polygon fill="black" stroke="black" points="876.24,-143.3 886.24,-139.8 876.24,-136.3 876.24,-143.3"/>
</g>
<!-- UserComponent -->
<g id="node12" class="node">
<title>UserComponent</title>
<polygon fill="#ffffb3" stroke="black" points="131.77,-84.8 24.23,-84.8 24.23,-48.8 131.77,-48.8 131.77,-84.8"/>
<text text-anchor="middle" x="78" y="-62.6" font-family="Times,serif" font-size="14.00">UserComponent</text>
</g>
<!-- UserComponent&#45;&gt;AppModule -->
<g id="edge12" class="edge">
<title>UserComponent&#45;&gt;AppModule</title>
<path fill="none" stroke="black" d="M78,-84.89C78,-107.93 78,-144.8 78,-144.8 78,-144.8 876.14,-144.8 876.14,-144.8"/>
<polygon fill="black" stroke="black" points="876.14,-148.3 886.14,-144.8 876.14,-141.3 876.14,-148.3"/>
</g>
<!-- AppComponent  -->
<g id="node15" class="node">
<title>AppComponent </title>
<polygon fill="#80b1d3" stroke="black" points="982.44,-214.8 873.56,-214.8 873.56,-178.8 982.44,-178.8 982.44,-214.8"/>
<text text-anchor="middle" x="928" y="-192.6" font-family="Times,serif" font-size="14.00">AppComponent </text>
</g>
<!-- AppModule&#45;&gt;AppComponent  -->
<g id="edge14" class="edge">
<title>AppModule&#45;&gt;AppComponent </title>
<path fill="none" stroke="black" stroke-dasharray="1,5" d="M928,-149.91C928,-149.91 928,-168.79 928,-168.79"/>
<polygon fill="black" stroke="black" points="924.5,-168.79 928,-178.79 931.5,-168.79 924.5,-168.79"/>
</g>
<!-- AppRoutingModule -->
<g id="node14" class="node">
<title>AppRoutingModule</title>
<polygon fill="#8dd3c7" stroke="black" points="1849.28,-84.8 1846.28,-88.8 1825.28,-88.8 1822.28,-84.8 1720.72,-84.8 1720.72,-48.8 1849.28,-48.8 1849.28,-84.8"/>
<text text-anchor="middle" x="1785" y="-62.6" font-family="Times,serif" font-size="14.00">AppRoutingModule</text>
</g>
<!-- AppRoutingModule&#45;&gt;AppModule -->
<g id="edge13" class="edge">
<title>AppRoutingModule&#45;&gt;AppModule</title>
<path fill="none" stroke="black" d="M1785,-84.89C1785,-107.93 1785,-144.8 1785,-144.8 1785,-144.8 979.92,-144.8 979.92,-144.8"/>
<polygon fill="black" stroke="black" points="979.92,-141.3 969.92,-144.8 979.91,-148.3 979.92,-141.3"/>
</g>
</g>
</svg>
