<?xml version="1.0" encoding="UTF-8" standalone="no"?>
<!DOCTYPE svg PUBLIC "-//W3C//DTD SVG 1.1//EN"
 "http://www.w3.org/Graphics/SVG/1.1/DTD/svg11.dtd">
<!-- Generated by graphviz version 5.0.0 (20220707.1540)
 -->
<!-- Title: dependencies Pages: 1 -->
<svg width="1881pt" height="247pt"
 viewBox="0.00 0.00 1881.00 246.80" xmlns="http://www.w3.org/2000/svg" xmlns:xlink="http://www.w3.org/1999/xlink">
<g id="graph0" class="graph" transform="scale(1 1) rotate(0) translate(4 242.8)">
<title>dependencies</title>
<polygon fill="white" stroke="transparent" points="-4,4 -4,-242.8 1877,-242.8 1877,4 -4,4"/>
<text text-anchor="middle" x="936.5" y="-8.2" font-family="sans-serif" font-size="14.00">dependencies</text>
<g id="clust1" class="cluster">
<title>cluster_AppModule</title>
<polygon fill="none" stroke="black" stroke-dasharray="1,5" points="8,-32.8 8,-230.8 1865,-230.8 1865,-32.8 8,-32.8"/>
</g>
<g id="clust2" class="cluster">
<title>cluster_AppModule_declarations</title>
<polygon fill="none" stroke="black" points="168,-40.8 168,-92.8 1857,-92.8 1857,-40.8 168,-40.8"/>
</g>
<g id="clust15" class="cluster">
<title>cluster_AppModule_imports</title>
<polygon fill="none" stroke="black" points="16,-40.8 16,-92.8 160,-92.8 160,-40.8 16,-40.8"/>
</g>
<g id="clust17" class="cluster">
<title>cluster_AppModule_bootstrap</title>
<polygon fill="none" stroke="black" points="880,-170.8 880,-222.8 1004,-222.8 1004,-170.8 880,-170.8"/>
</g>
<!-- AppComponent -->
<g id="node1" class="node">
<title>AppComponent</title>
<polygon fill="#ffffb3" stroke="black" points="1848.94,-84.8 1743.06,-84.8 1743.06,-48.8 1848.94,-48.8 1848.94,-84.8"/>
<text text-anchor="middle" x="1796" y="-62.6" font-family="Times,serif" font-size="14.00">AppComponent</text>
</g>
<!-- AppModule -->
<g id="node13" class="node">
<title>AppModule</title>
<polygon fill="#8dd3c7" stroke="black" points="983.66,-149.8 980.66,-153.8 959.66,-153.8 956.66,-149.8 900.34,-149.8 900.34,-113.8 983.66,-113.8 983.66,-149.8"/>
<text text-anchor="middle" x="942" y="-127.6" font-family="Times,serif" font-size="14.00">AppModule</text>
</g>
<!-- AppComponent&#45;&gt;AppModule -->
<g id="edge1" class="edge">
<title>AppComponent&#45;&gt;AppModule</title>
<path fill="none" stroke="black" d="M1796,-84.89C1796,-107.93 1796,-144.8 1796,-144.8 1796,-144.8 993.77,-144.8 993.77,-144.8"/>
<polygon fill="black" stroke="black" points="993.77,-141.3 983.77,-144.8 993.77,-148.3 993.77,-141.3"/>
</g>
<!-- AuthButtonComponent -->
<g id="node2" class="node">
<title>AuthButtonComponent</title>
<polygon fill="#ffffb3" stroke="black" points="1725.95,-84.8 1578.05,-84.8 1578.05,-48.8 1725.95,-48.8 1725.95,-84.8"/>
<text text-anchor="middle" x="1652" y="-62.6" font-family="Times,serif" font-size="14.00">AuthButtonComponent</text>
</g>
<!-- AuthButtonComponent&#45;&gt;AppModule -->
<g id="edge2" class="edge">
<title>AuthButtonComponent&#45;&gt;AppModule</title>
<path fill="none" stroke="black" d="M1652,-84.84C1652,-106.46 1652,-139.8 1652,-139.8 1652,-139.8 993.76,-139.8 993.76,-139.8"/>
<polygon fill="black" stroke="black" points="993.76,-136.3 983.76,-139.8 993.76,-143.3 993.76,-136.3"/>
</g>
<!-- BuySellComponent -->
<g id="node3" class="node">
<title>BuySellComponent</title>
<polygon fill="#ffffb3" stroke="black" points="1560.45,-84.8 1433.55,-84.8 1433.55,-48.8 1560.45,-48.8 1560.45,-84.8"/>
<text text-anchor="middle" x="1497" y="-62.6" font-family="Times,serif" font-size="14.00">BuySellComponent</text>
</g>
<!-- BuySellComponent&#45;&gt;AppModule -->
<g id="edge3" class="edge">
<title>BuySellComponent&#45;&gt;AppModule</title>
<path fill="none" stroke="black" d="M1497,-85.02C1497,-105.17 1497,-134.8 1497,-134.8 1497,-134.8 993.72,-134.8 993.72,-134.8"/>
<polygon fill="black" stroke="black" points="993.72,-131.3 983.72,-134.8 993.72,-138.3 993.72,-131.3"/>
</g>
<!-- DefaultComponent -->
<g id="node4" class="node">
<title>DefaultComponent</title>
<polygon fill="#ffffb3" stroke="black" points="1415.81,-84.8 1292.19,-84.8 1292.19,-48.8 1415.81,-48.8 1415.81,-84.8"/>
<text text-anchor="middle" x="1354" y="-62.6" font-family="Times,serif" font-size="14.00">DefaultComponent</text>
</g>
<!-- DefaultComponent&#45;&gt;AppModule -->
<g id="edge4" class="edge">
<title>DefaultComponent&#45;&gt;AppModule</title>
<path fill="none" stroke="black" d="M1354,-85.02C1354,-103.63 1354,-129.8 1354,-129.8 1354,-129.8 993.77,-129.8 993.77,-129.8"/>
<polygon fill="black" stroke="black" points="993.77,-126.3 983.77,-129.8 993.77,-133.3 993.77,-126.3"/>
</g>
<!-- FooterComponent -->
<g id="node5" class="node">
<title>FooterComponent</title>
<polygon fill="#ffffb3" stroke="black" points="1273.88,-84.8 1156.12,-84.8 1156.12,-48.8 1273.88,-48.8 1273.88,-84.8"/>
<text text-anchor="middle" x="1215" y="-62.6" font-family="Times,serif" font-size="14.00">FooterComponent</text>
</g>
<!-- FooterComponent&#45;&gt;AppModule -->
<g id="edge5" class="edge">
<title>FooterComponent&#45;&gt;AppModule</title>
<path fill="none" stroke="black" d="M1215,-84.83C1215,-101.86 1215,-124.8 1215,-124.8 1215,-124.8 993.76,-124.8 993.76,-124.8"/>
<polygon fill="black" stroke="black" points="993.76,-121.3 983.76,-124.8 993.76,-128.3 993.76,-121.3"/>
</g>
<!-- HomeComponent -->
<g id="node6" class="node">
<title>HomeComponent</title>
<polygon fill="#ffffb3" stroke="black" points="1137.55,-84.8 1022.45,-84.8 1022.45,-48.8 1137.55,-48.8 1137.55,-84.8"/>
<text text-anchor="middle" x="1080" y="-62.6" font-family="Times,serif" font-size="14.00">HomeComponent</text>
</g>
<!-- HomeComponent&#45;&gt;AppModule -->
<g id="edge6" class="edge">
<title>HomeComponent&#45;&gt;AppModule</title>
<path fill="none" stroke="black" d="M1080,-85.04C1080,-100.37 1080,-119.8 1080,-119.8 1080,-119.8 993.78,-119.8 993.78,-119.8"/>
<polygon fill="black" stroke="black" points="993.78,-116.3 983.78,-119.8 993.78,-123.3 993.78,-116.3"/>
</g>
<!-- NavBarComponent -->
<g id="node7" class="node">
<title>NavBarComponent</title>
<polygon fill="#ffffb3" stroke="black" points="1004.37,-84.8 879.63,-84.8 879.63,-48.8 1004.37,-48.8 1004.37,-84.8"/>
<text text-anchor="middle" x="942" y="-62.6" font-family="Times,serif" font-size="14.00">NavBarComponent</text>
</g>
<!-- NavBarComponent&#45;&gt;AppModule -->
<g id="edge7" class="edge">
<title>NavBarComponent&#45;&gt;AppModule</title>
<path fill="none" stroke="black" d="M942,-84.91C942,-84.91 942,-103.79 942,-103.79"/>
<polygon fill="black" stroke="black" points="938.5,-103.79 942,-113.79 945.5,-103.79 938.5,-103.79"/>
</g>
<!-- PortfolioComponent -->
<g id="node8" class="node">
<title>PortfolioComponent</title>
<polygon fill="#ffffb3" stroke="black" points="861.61,-84.8 730.39,-84.8 730.39,-48.8 861.61,-48.8 861.61,-84.8"/>
<text text-anchor="middle" x="796" y="-62.6" font-family="Times,serif" font-size="14.00">PortfolioComponent</text>
</g>
<!-- PortfolioComponent&#45;&gt;AppModule -->
<g id="edge8" class="edge">
<title>PortfolioComponent&#45;&gt;AppModule</title>
<path fill="none" stroke="black" d="M796,-85.04C796,-100.37 796,-119.8 796,-119.8 796,-119.8 890.16,-119.8 890.16,-119.8"/>
<polygon fill="black" stroke="black" points="890.16,-123.3 900.16,-119.8 890.16,-116.3 890.16,-123.3"/>
</g>
<!-- RegisterComponent -->
<g id="node9" class="node">
<title>RegisterComponent</title>
<polygon fill="#ffffb3" stroke="black" points="711.99,-84.8 584.01,-84.8 584.01,-48.8 711.99,-48.8 711.99,-84.8"/>
<text text-anchor="middle" x="648" y="-62.6" font-family="Times,serif" font-size="14.00">RegisterComponent</text>
</g>
<!-- RegisterComponent&#45;&gt;AppModule -->
<g id="edge9" class="edge">
<title>RegisterComponent&#45;&gt;AppModule</title>
<path fill="none" stroke="black" d="M648,-84.83C648,-101.86 648,-124.8 648,-124.8 648,-124.8 890.19,-124.8 890.19,-124.8"/>
<polygon fill="black" stroke="black" points="890.19,-128.3 900.19,-124.8 890.19,-121.3 890.19,-128.3"/>
</g>
<!-- SignOutComponent -->
<g id="node10" class="node">
<title>SignOutComponent</title>
<polygon fill="#ffffb3" stroke="black" points="566.01,-84.8 437.99,-84.8 437.99,-48.8 566.01,-48.8 566.01,-84.8"/>
<text text-anchor="middle" x="502" y="-62.6" font-family="Times,serif" font-size="14.00">SignOutComponent</text>
</g>
<!-- SignOutComponent&#45;&gt;AppModule -->
<g id="edge10" class="edge">
<title>SignOutComponent&#45;&gt;AppModule</title>
<path fill="none" stroke="black" d="M502,-85.02C502,-103.63 502,-129.8 502,-129.8 502,-129.8 890.21,-129.8 890.21,-129.8"/>
<polygon fill="black" stroke="black" points="890.21,-133.3 900.21,-129.8 890.21,-126.3 890.21,-133.3"/>
</g>
<!-- SigninComponent -->
<g id="node11" class="node">
<title>SigninComponent</title>
<polygon fill="#ffffb3" stroke="black" points="419.9,-84.8 302.1,-84.8 302.1,-48.8 419.9,-48.8 419.9,-84.8"/>
<text text-anchor="middle" x="361" y="-62.6" font-family="Times,serif" font-size="14.00">SigninComponent</text>
</g>
<!-- SigninComponent&#45;&gt;AppModule -->
<g id="edge11" class="edge">
<title>SigninComponent&#45;&gt;AppModule</title>
<path fill="none" stroke="black" d="M361,-85.02C361,-105.17 361,-134.8 361,-134.8 361,-134.8 890.22,-134.8 890.22,-134.8"/>
<polygon fill="black" stroke="black" points="890.22,-138.3 900.22,-134.8 890.22,-131.3 890.22,-138.3"/>
</g>
<!-- UserComponent -->
<g id="node12" class="node">
<title>UserComponent</title>
<polygon fill="#ffffb3" stroke="black" points="283.77,-84.8 176.23,-84.8 176.23,-48.8 283.77,-48.8 283.77,-84.8"/>
<text text-anchor="middle" x="230" y="-62.6" font-family="Times,serif" font-size="14.00">UserComponent</text>
</g>
<!-- UserComponent&#45;&gt;AppModule -->
<g id="edge12" class="edge">
<title>UserComponent&#45;&gt;AppModule</title>
<path fill="none" stroke="black" d="M230,-84.84C230,-106.46 230,-139.8 230,-139.8 230,-139.8 890.12,-139.8 890.12,-139.8"/>
<polygon fill="black" stroke="black" points="890.12,-143.3 900.12,-139.8 890.12,-136.3 890.12,-143.3"/>
</g>
<!-- AppComponent  -->
<g id="node15" class="node">
<title>AppComponent </title>
<polygon fill="#80b1d3" stroke="black" points="996.44,-214.8 887.56,-214.8 887.56,-178.8 996.44,-178.8 996.44,-214.8"/>
<text text-anchor="middle" x="942" y="-192.6" font-family="Times,serif" font-size="14.00">AppComponent </text>
</g>
<!-- AppModule&#45;&gt;AppComponent  -->
<g id="edge14" class="edge">
<title>AppModule&#45;&gt;AppComponent </title>
<path fill="none" stroke="black" stroke-dasharray="1,5" d="M942,-149.91C942,-149.91 942,-168.79 942,-168.79"/>
<polygon fill="black" stroke="black" points="938.5,-168.79 942,-178.79 945.5,-168.79 938.5,-168.79"/>
</g>
<!-- AppRoutingModule -->
<g id="node14" class="node">
<title>AppRoutingModule</title>
<polygon fill="#8dd3c7" stroke="black" points="152.28,-84.8 149.28,-88.8 128.28,-88.8 125.28,-84.8 23.72,-84.8 23.72,-48.8 152.28,-48.8 152.28,-84.8"/>
<text text-anchor="middle" x="88" y="-62.6" font-family="Times,serif" font-size="14.00">AppRoutingModule</text>
</g>
<!-- AppRoutingModule&#45;&gt;AppModule -->
<g id="edge13" class="edge">
<title>AppRoutingModule&#45;&gt;AppModule</title>
<path fill="none" stroke="black" d="M88,-84.89C88,-107.93 88,-144.8 88,-144.8 88,-144.8 890.23,-144.8 890.23,-144.8"/>
<polygon fill="black" stroke="black" points="890.23,-148.3 900.23,-144.8 890.23,-141.3 890.23,-148.3"/>
</g>
</g>
</svg>
